<svg width="127" height="49" xmlns="http://www.w3.org/2000/svg"><path d="M46.381 36.83v1.957h2.472v4.836h-2.46v2.748c.624-.096 1.2-.204 1.728-.312a22.97 22.97 0 00-.564-1.68l.708-.24a26.38 26.38 0 011.104 3.504l-.792.204c-.084-.36-.168-.696-.252-1.02-1.332.3-3.192.552-5.58.756l-.132-.876a58.12 58.12 0 002.916-.228v-2.856h-2.448v-4.836h2.436V36.83h.864zm-41.82.469v9.36c0 .72-.336 1.092-1.008 1.092h-.96l-.204-.768c.336.024.636.048.924.048.3 0 .456-.216.456-.648V43.67H1.825c-.072 1.68-.36 3.06-.852 4.14l-.648-.6c.48-1.08.72-2.472.732-4.152v-5.76h3.504zm14.036 4.788c0 .48-.048.936-.12 1.368h4.224c-.024 2.028-.204 3.24-.552 3.636-.348.396-.948.6-1.8.6-.384 0-.852-.024-1.404-.048l-.216-.78 1.416.06c.72-.012 1.164-.168 1.356-.456.18-.288.288-1.032.324-2.232h-3.552a4.952 4.952 0 01-.384.9c-.612 1.08-2.016 1.98-4.224 2.676l-.576-.708c1.968-.576 3.276-1.308 3.9-2.184.144-.216.276-.444.372-.684h-3.576v-.78h3.816c.096-.432.144-.888.144-1.368zm-8.168-4.8c0 1.488-.072 2.472-.216 2.952-.144.492-.588.744-1.344.744h-.972l-.228-.744c.204 0 .468.012.804.012.288 0 .492-.024.636-.06.144-.048.252-.168.324-.348.084-.264.132-.852.156-1.764H6.385v3.636h4.08v.732c-.228 1.236-.624 2.292-1.176 3.156.54.528 1.176.996 1.908 1.416l-.432.732a9.8 9.8 0 01-1.968-1.476 6.403 6.403 0 01-1.86 1.488l-.456-.696a5.899 5.899 0 001.74-1.416 7.529 7.529 0 01-1.548-3.168h-.288v5.316H5.57V37.287zm114.312-.564l.816.288c-.252.768-.54 1.452-.852 2.064h1.332v.828h-1.992v1.74h1.74v.804h-1.74v1.74h2.256v.828h-2.256v2.76h-.852v-2.76h-2.232v-.828h2.232v-1.74h-1.86v-.804h1.86v-1.74h-2.148v-.828h1.416a18.782 18.782 0 00-1.02-1.92l.732-.348c.36.576.708 1.224 1.032 1.92l-.72.348h1.356c.348-.744.648-1.524.9-2.352zm-16.256.084c0 1.032-.036 1.92-.084 2.664.672 3.264 2.412 5.76 5.208 7.476l-.564.756c-2.448-1.608-4.104-3.768-4.956-6.48-.72 2.616-2.424 4.776-5.088 6.492l-.528-.768c3.3-2.028 5.004-4.776 5.112-8.232.012-.816.024-1.452.024-1.908zm11.552.444v2.136h.672v.768h-.672v2.1h-2.46c-.108.42-.228.804-.36 1.164h3.144v4.272h-.768v-.696h-1.896v.72h-.768v-3.588c-.324.696-.708 1.308-1.164 1.812l-.456-.72c.66-.744 1.152-1.728 1.476-2.964h-.936v-.744h1.116c.084-.432.156-.888.204-1.356h-1.608v-.768h1.68c.024-.456.048-.912.06-1.392h-1.38v-.744h4.116zm-84.32 0v.84h-3.924v3.264h4.764v.864h-4.764v4.26c0 .78-.408 1.176-1.212 1.176H28.71l-.18-.828c.612.024 1.2.048 1.752.048.42 0 .636-.204.636-.612v-4.044H25.95v-.864h4.968V38.09h-4.212v-.84h9.012zm6.5-.3l.708.444c-.504.78-1.008 1.416-1.512 1.908.084.168.156.336.228.504.348.96.54 2.328.576 4.104 0 1.896-.24 3.048-.72 3.432-.288.204-.672.312-1.176.312-.36 0-.648-.012-.864-.012l-.252-.804c.324.024.636.048.924.048.408 0 .672-.072.816-.204.3-.312.456-1.248.456-2.82a41.383 41.383 0 00-.06-1.392 8.834 8.834 0 01-2.184 2.196l-.48-.72c1.08-.72 1.92-1.596 2.52-2.616a7.775 7.775 0 00-.3-1.164c-.048-.108-.084-.204-.132-.288-.468.36-.996.732-1.596 1.092l-.468-.744a7.973 7.973 0 001.68-1.104 6.59 6.59 0 00-1.308-1.536l.672-.528c.492.492.9.996 1.236 1.5.444-.48.852-1.008 1.236-1.608zm53.936-.192l.852.108c-.144.708-.312 1.38-.528 2.004h3.828c0 3.984-.06 6.456-.18 7.392-.12.912-.672 1.38-1.68 1.38-.24 0-.648-.024-1.224-.048l-.204-.792c.504.024.936.036 1.308.036.564 0 .888-.312.984-.924.072-.672.12-2.748.144-6.204h-3.3c-.336.756-.732 1.44-1.2 2.052l-.516-.684c.84-1.176 1.404-2.616 1.716-4.32zM67.95 43.767v2.4c0 .432.216.648.648.648h2.652c.264 0 .444-.072.552-.216.132-.168.228-.648.276-1.452l.828.276c-.072 1.056-.24 1.692-.492 1.92-.216.192-.552.288-1.008.288h-3.084c-.816 0-1.224-.432-1.224-1.272v-2.592h.852zm14.42-7.008v1.236h2.712v.672c.504-.516.972-1.056 1.38-1.608l.636.48a16.909 16.909 0 01-2.34 2.556h2.94v.828h-3.972c-.6.432-1.224.84-1.872 1.212h5.136v.78h-5.952l-.396 1.236h5.748c-.084 1.656-.264 2.652-.54 2.976-.276.312-.816.468-1.632.468-.564 0-1.068-.024-1.5-.072l-.276-.756c.6.036 1.128.06 1.596.06.624 0 1.008-.108 1.176-.312.144-.216.24-.756.312-1.608h-5.904l.54-1.92c-.924.408-1.884.768-2.892 1.08l-.348-.78c2.028-.612 3.804-1.404 5.34-2.364h-4.824v-.828h4.068v-1.296h-3.204v-.804h3.204v-1.236h.864zM65.537 43.79l.828.168c-.348 1.344-.84 2.496-1.476 3.48l-.744-.468a10.222 10.222 0 001.392-3.18zm26.332-7.02l.864.12a11.461 11.461 0 01-.564 1.968h1.932v8.184h-.84v-.684h-2.184v1.032h-.84v-8.532h1.116c.24-.672.408-1.368.516-2.088zm-32.556 3.48l.912.24c-.492 2.16-1.104 4.08-1.848 5.76h3.924v.84h-10.86v-.84h5.952c.732-1.596 1.368-3.6 1.92-6zm14.024 3.252c.672.984 1.26 2.028 1.752 3.144l-.78.36a19.544 19.544 0 00-1.788-3.24zm46.256.708h-1.896v2.016h1.896V44.21zM54.43 40.299c.528 1.56.996 3.336 1.404 5.352l-.924.228a45.339 45.339 0 00-1.38-5.28zm15.404 2.904c.468.648.876 1.356 1.224 2.1l-.792.348c-.372-.828-.78-1.56-1.212-2.196zm23.428-.276h-2.184v2.628h2.184v-2.628zm-83.564-.444h-2.28a6.627 6.627 0 001.296 2.496c.444-.72.768-1.548.984-2.496zm86.492-.84c.864.996 1.512 1.872 1.968 2.616l-.684.48c-.492-.792-1.152-1.68-1.98-2.664zm-92.42-.756H1.837v2.004H3.77v-2.004zm41.772-1.296h-1.608v3.228h1.608V39.59zm2.472 0h-1.632v3.228h1.632V39.59zm25.372-2.352v5.544h-7.512v-5.544h7.512zm-56.804-.492l.876.12a7.183 7.183 0 01-.456.912h5.232v.696c-.768.888-1.704 1.644-2.808 2.268 1.356.576 2.868.948 4.536 1.116l-.396.804c-1.896-.216-3.588-.696-5.076-1.44-1.464.672-3.18 1.164-5.124 1.464l-.396-.816c1.74-.24 3.264-.624 4.584-1.152a12.414 12.414 0 01-1.872-1.356c-.456.408-.948.78-1.5 1.116l-.528-.696c1.44-.828 2.424-1.836 2.928-3.036zm76.68 2.928h-2.184v2.472h2.184v-2.472zm-24.052.72h-2.484v1.56h2.484v-1.56zm3.324 0h-2.508v1.56h2.508v-1.56zm46.712-.24h-1.296c-.06.48-.132.924-.204 1.356h1.5v-1.356zm-98.248-1.56h-4.584l-.156.192a11.322 11.322 0 002.22 1.512 10.79 10.79 0 002.52-1.704zM3.77 38.079H1.837v2.028H3.77v-2.028zm81.18.72h-2.58v1.296h1.08c.54-.408 1.044-.84 1.5-1.296zm-12.416-.744h-2.508v1.572h2.508v-1.572zm-3.324 0h-2.484v1.572h2.484v-1.572zm-12.368-1.272c.192.564.372 1.212.552 1.932h4.5v.84H51.85v-.84h4.608a18.72 18.72 0 00-.612-1.764zm62.404 1.212h-1.164c-.012.48-.036.948-.06 1.392h1.224v-1.392zM22.872.288a5.467 5.467 0 015.462 5.246l.005.22v16.539a5.467 5.467 0 01-5.247 5.462l-.22.005H6.334A5.467 5.467 0 01.87 22.513l-.004-.22V5.754A5.467 5.467 0 016.114.292l.22-.004h16.538zM54.779 4.33v9.393h-3.602c1.59 1.327 3.779 2.411 6.056 2.986-.553.53-1.349 1.546-1.746 2.255a16.133 16.133 0 01-3.736-1.793v6.986H49.01v-7.781h1.658c-.994-.796-1.879-1.656-2.587-2.653h-2.276c-.73.974-1.658 1.835-2.652 2.63h1.88v1.527c0 2.098-.642 4.885-5.042 6.499-.353-.642-1.237-1.636-1.812-2.124 3.692-1.215 4.133-3.072 4.133-4.487v-.795a17.657 17.657 0 01-4.023 2.055c-.375-.64-1.148-1.613-1.724-2.165 2.21-.641 4.4-1.79 5.968-3.14H39.02V4.33h15.76zm25.049.508v2.476h-8.821c-.199.686-.418 1.347-.597 1.989h8.4v14.92h-2.674v-1.127H63.382v1.126h-2.541V9.302h6.807a29.76 29.76 0 00.355-1.988h-8.068V4.838h19.893zm29.166 4.045v15.32h-2.675V8.882h2.675zm16.423-4.486v16.996c0 1.26-.223 1.88-.974 2.3-.729.397-1.812.464-3.316.464-.087-.663-.418-1.747-.729-2.386.818.042 1.723.042 2.011.042.309-.02.398-.11.398-.42V6.739h-10.432V4.397h13.042zm-24.85-.597l2.033 1.922c-1.835.709-4.112 1.26-6.277 1.659v3.47h6.785v2.432h-2.054v10.852h-2.566V13.283h-2.165v.154c0 3.25-.287 7.757-2.188 10.521-.42-.464-1.46-1.282-2.012-1.569.418-.618.751-1.35.972-2.122l-1.747 1.106c-.353-.907-1.104-2.3-1.723-3.317l1.723-.95c.666.995 1.394 2.298 1.77 3.116.686-2.166.75-4.664.75-6.785v-7.76c2.432-.442 5.107-1.126 6.698-1.877zm-12.09-.332c.33.708.707 1.568.949 2.299h3.493V7.91h-2.785l1.81.353c-.353.84-.66 1.703-.994 2.39h2.3v2.165h-4v1.7h3.646v2.213H89.25v4.729c0 1.061-.177 1.614-.84 1.99-.663.354-1.547.374-2.72.374-.088-.616-.398-1.524-.707-2.143.664.023 1.348.023 1.591.023.244 0 .309-.067.309-.311v-4.662h-4.066v-2.212h4.066v-1.701h-4.197v-2.166h2.165c-.111-.686-.355-1.613-.664-2.3L86 7.91h-2.984V5.767h3.78a25.418 25.418 0 00-.664-1.748l2.344-.551zm32.915 5.128v2.012h-1.236v7.118l1.679-.112.022 2.011-1.7.155v2.498h-2.345v-2.32c-2.94.242-5.745.44-7.935.619l-.222-2.145c.51-.022 1.061-.067 1.658-.088v-7.736h-1.193V8.596h11.272zm-37.07 8.732l2.033.507c-.532 1.46-1.372 3.028-2.232 4-.398-.33-1.218-.95-1.703-1.238.838-.838 1.504-2.098 1.901-3.27zM71.384 19.05h-3.382v1.636h3.382V19.05zm-5.748-7.317h-2.255v8.953h2.255v-8.953zm10.499 0h-2.387v8.953h2.387v-8.953zM25.485 7.59L9.655 11.3v5.348l1.746-.313v-3.829l12.104-2.2v8.054l-6.637-.563-4.077.955 12.695 1.703V7.591zm-21.767 0v12.865l15.831-3.71v-5.348l-1.747.313v3.83L5.7 17.74V9.685l6.604.563 4.077-.955L3.719 7.59zm114.093 9.118h-4.154v1.48c1.302-.088 2.717-.177 4.154-.287V16.71zm-46.427-1.393h-3.382v1.679h3.382v-1.679zm46.427-1.703h-4.154v1.26h4.154v-1.26zm-46.427-1.879h-3.382v1.526h3.382v-1.526zm46.427-1.126h-4.154v1.17h4.154v-1.17zm-65.774-.597H48.17v1.591h3.868V10.01zm-6.52 0H41.65v1.591h3.868V10.01zm44.04-2.1H86.31c.374.75.662 1.79.751 2.453L86 10.652h2.608c.333-.796.73-1.924.95-2.742zm19.058-4.222c1.04.907 2.277 2.188 2.854 3.117l-2.058 1.457c-.508-.905-1.701-2.32-2.696-3.27l1.9-1.304zM45.518 6.45H41.65v1.593h3.868V6.451zm6.52 0H48.17v1.593h3.868V6.451z" fill="#FFF" fill-rule="evenodd"/></svg>